<svg width="16" height="16" fill="none" xmlns="http://www.w3.org/2000/svg"><path d="M9.025 4.053H6.497a.472.472 0 0 0-.472.473V8.1h-.54a.472.472 0 0 0 0 .944h.54v1.08h-.54a.472.472 0 0 0 0 .944h.54v1.045a.472.472 0 1 0 .944 0V11.07h2.056a.472.472 0 0 0 0-.945H6.97V9.045h2.056a2.495 2.495 0 1 0 0-4.992zm0 4.048H6.97V4.998h2.056c.85 0 1.55.686 1.55 1.551 0 .856-.695 1.552-1.55 1.552z" fill="#A0BBD2"/><path d="M8 0C3.589 0 0 3.589 0 8s3.589 8 8 8 8-3.589 8-8-3.589-8-8-8zm0 15.063A7.07 7.07 0 0 1 .937 8 7.07 7.07 0 0 1 8 .937 7.07 7.07 0 0 1 15.063 8 7.07 7.07 0 0 1 8 15.063z" fill="#A0BBD2"/></svg>